<mxfile host="Electron" modified="2023-04-22T03:01:30.453Z" agent="Mozilla/5.0 (Windows NT 10.0; Win64; x64) AppleWebKit/537.36 (KHTML, like Gecko) draw.io/21.2.1 Chrome/112.0.5615.87 Electron/24.1.2 Safari/537.36" etag="KSZ-k1NGVQII7E1KyAbC" version="21.2.1" type="device">
  <diagram name="Page-1" id="wG9ravdNgveiPADenWRO">
    <mxGraphModel dx="1451" dy="1396" grid="1" gridSize="10" guides="1" tooltips="1" connect="1" arrows="1" fold="1" page="1" pageScale="1" pageWidth="850" pageHeight="1100" math="0" shadow="0">
      <root>
        <mxCell id="0" />
        <mxCell id="1" parent="0" />
        <mxCell id="5ubhzj_Dc8ZbfFezIb3G-29" value="Load Balancer" style="swimlane;whiteSpace=wrap;html=1;" parent="1" vertex="1">
          <mxGeometry x="240" y="410" width="160" height="130" as="geometry" />
        </mxCell>
        <mxCell id="5ubhzj_Dc8ZbfFezIb3G-33" value="Nginx proxy&lt;br&gt;server" style="rounded=0;whiteSpace=wrap;html=1;" parent="5ubhzj_Dc8ZbfFezIb3G-29" vertex="1">
          <mxGeometry x="20" y="30" width="120" height="90" as="geometry" />
        </mxCell>
        <mxCell id="5ubhzj_Dc8ZbfFezIb3G-34" value="" style="rounded=0;whiteSpace=wrap;html=1;" parent="5ubhzj_Dc8ZbfFezIb3G-29" vertex="1">
          <mxGeometry x="10" y="50" width="20" height="10" as="geometry" />
        </mxCell>
        <mxCell id="5ubhzj_Dc8ZbfFezIb3G-35" value="" style="rounded=0;whiteSpace=wrap;html=1;" parent="5ubhzj_Dc8ZbfFezIb3G-29" vertex="1">
          <mxGeometry x="10" y="90" width="20" height="10" as="geometry" />
        </mxCell>
        <mxCell id="Rh-No7KB1UPHoSZis6lg-21" style="edgeStyle=orthogonalEdgeStyle;rounded=0;orthogonalLoop=1;jettySize=auto;html=1;exitX=0.5;exitY=1;exitDx=0;exitDy=0;entryX=0.5;entryY=0;entryDx=0;entryDy=0;" edge="1" parent="1" source="5ubhzj_Dc8ZbfFezIb3G-36" target="5ubhzj_Dc8ZbfFezIb3G-40">
          <mxGeometry relative="1" as="geometry" />
        </mxCell>
        <mxCell id="Rh-No7KB1UPHoSZis6lg-33" style="edgeStyle=orthogonalEdgeStyle;rounded=0;orthogonalLoop=1;jettySize=auto;html=1;exitX=1;exitY=0.5;exitDx=0;exitDy=0;entryX=0.5;entryY=0;entryDx=0;entryDy=0;" edge="1" parent="1" source="5ubhzj_Dc8ZbfFezIb3G-36" target="Rh-No7KB1UPHoSZis6lg-26">
          <mxGeometry relative="1" as="geometry">
            <Array as="points">
              <mxPoint x="640" y="290" />
              <mxPoint x="760" y="290" />
            </Array>
          </mxGeometry>
        </mxCell>
        <mxCell id="5ubhzj_Dc8ZbfFezIb3G-36" value="Application Server" style="swimlane;whiteSpace=wrap;html=1;" parent="1" vertex="1">
          <mxGeometry x="480" y="210" width="160" height="150" as="geometry" />
        </mxCell>
        <mxCell id="5ubhzj_Dc8ZbfFezIb3G-37" value="Host Web&lt;br&gt;Server" style="rounded=0;whiteSpace=wrap;html=1;" parent="5ubhzj_Dc8ZbfFezIb3G-36" vertex="1">
          <mxGeometry x="20" y="30" width="120" height="50" as="geometry" />
        </mxCell>
        <mxCell id="5ubhzj_Dc8ZbfFezIb3G-38" value="" style="rounded=0;whiteSpace=wrap;html=1;" parent="5ubhzj_Dc8ZbfFezIb3G-36" vertex="1">
          <mxGeometry x="10" y="40" width="20" height="10" as="geometry" />
        </mxCell>
        <mxCell id="5ubhzj_Dc8ZbfFezIb3G-39" value="" style="rounded=0;whiteSpace=wrap;html=1;" parent="5ubhzj_Dc8ZbfFezIb3G-36" vertex="1">
          <mxGeometry x="10" y="60" width="20" height="10" as="geometry" />
        </mxCell>
        <mxCell id="Rh-No7KB1UPHoSZis6lg-9" value="Application" style="rounded=0;whiteSpace=wrap;html=1;" vertex="1" parent="5ubhzj_Dc8ZbfFezIb3G-36">
          <mxGeometry x="20" y="90" width="120" height="50" as="geometry" />
        </mxCell>
        <mxCell id="Rh-No7KB1UPHoSZis6lg-10" value="" style="rounded=0;whiteSpace=wrap;html=1;" vertex="1" parent="5ubhzj_Dc8ZbfFezIb3G-36">
          <mxGeometry x="10" y="100" width="20" height="10" as="geometry" />
        </mxCell>
        <mxCell id="Rh-No7KB1UPHoSZis6lg-11" value="" style="rounded=0;whiteSpace=wrap;html=1;" vertex="1" parent="5ubhzj_Dc8ZbfFezIb3G-36">
          <mxGeometry x="10" y="120" width="20" height="10" as="geometry" />
        </mxCell>
        <mxCell id="5ubhzj_Dc8ZbfFezIb3G-40" value="Database Cluster" style="swimlane;whiteSpace=wrap;html=1;" parent="1" vertex="1">
          <mxGeometry x="480" y="430" width="160" height="90" as="geometry" />
        </mxCell>
        <mxCell id="5ubhzj_Dc8ZbfFezIb3G-41" value="DB master" style="rounded=0;whiteSpace=wrap;html=1;" parent="5ubhzj_Dc8ZbfFezIb3G-40" vertex="1">
          <mxGeometry x="20" y="30" width="120" height="20" as="geometry" />
        </mxCell>
        <mxCell id="5ubhzj_Dc8ZbfFezIb3G-42" value="" style="rounded=0;whiteSpace=wrap;html=1;" parent="5ubhzj_Dc8ZbfFezIb3G-40" vertex="1">
          <mxGeometry x="10" y="30" width="20" height="10" as="geometry" />
        </mxCell>
        <mxCell id="5ubhzj_Dc8ZbfFezIb3G-43" value="" style="rounded=0;whiteSpace=wrap;html=1;" parent="5ubhzj_Dc8ZbfFezIb3G-40" vertex="1">
          <mxGeometry x="10" y="40" width="20" height="10" as="geometry" />
        </mxCell>
        <mxCell id="5ubhzj_Dc8ZbfFezIb3G-48" value="DB slave" style="rounded=0;whiteSpace=wrap;html=1;" parent="5ubhzj_Dc8ZbfFezIb3G-40" vertex="1">
          <mxGeometry x="20" y="60" width="120" height="20" as="geometry" />
        </mxCell>
        <mxCell id="5ubhzj_Dc8ZbfFezIb3G-49" value="" style="rounded=0;whiteSpace=wrap;html=1;" parent="5ubhzj_Dc8ZbfFezIb3G-40" vertex="1">
          <mxGeometry x="10" y="70" width="20" height="10" as="geometry" />
        </mxCell>
        <mxCell id="5ubhzj_Dc8ZbfFezIb3G-50" value="" style="rounded=0;whiteSpace=wrap;html=1;" parent="5ubhzj_Dc8ZbfFezIb3G-40" vertex="1">
          <mxGeometry x="10" y="60" width="20" height="10" as="geometry" />
        </mxCell>
        <mxCell id="5ubhzj_Dc8ZbfFezIb3G-53" value="&lt;font style=&quot;font-size: 10px;&quot;&gt;&amp;lt;&amp;lt;request&amp;gt;&amp;gt;&lt;/font&gt;" style="text;html=1;align=center;verticalAlign=middle;resizable=0;points=[];autosize=1;strokeColor=none;fillColor=none;" parent="1" vertex="1">
          <mxGeometry x="110" y="340" width="80" height="30" as="geometry" />
        </mxCell>
        <mxCell id="5ubhzj_Dc8ZbfFezIb3G-54" value="&lt;font style=&quot;font-size: 10px;&quot;&gt;&amp;lt;&amp;lt;integrate&amp;gt;&amp;gt;&lt;/font&gt;" style="text;html=1;align=center;verticalAlign=middle;resizable=0;points=[];autosize=1;strokeColor=none;fillColor=none;" parent="1" vertex="1">
          <mxGeometry x="110" y="580" width="90" height="30" as="geometry" />
        </mxCell>
        <mxCell id="5ubhzj_Dc8ZbfFezIb3G-57" value="&lt;font style=&quot;font-size: 10px;&quot;&gt;Datasource&lt;/font&gt;" style="text;html=1;align=center;verticalAlign=middle;resizable=0;points=[];autosize=1;strokeColor=none;fillColor=none;" parent="1" vertex="1">
          <mxGeometry x="560" y="380" width="70" height="30" as="geometry" />
        </mxCell>
        <mxCell id="5ubhzj_Dc8ZbfFezIb3G-58" value="&lt;font style=&quot;font-size: 10px;&quot;&gt;Balance&lt;/font&gt;" style="text;html=1;align=center;verticalAlign=middle;resizable=0;points=[];autosize=1;strokeColor=none;fillColor=none;" parent="1" vertex="1">
          <mxGeometry x="370" y="340" width="60" height="30" as="geometry" />
        </mxCell>
        <mxCell id="Rh-No7KB1UPHoSZis6lg-4" style="edgeStyle=orthogonalEdgeStyle;rounded=0;orthogonalLoop=1;jettySize=auto;html=1;exitX=0.5;exitY=1;exitDx=0;exitDy=0;entryX=0.492;entryY=0.075;entryDx=0;entryDy=0;entryPerimeter=0;" edge="1" parent="1" source="5ubhzj_Dc8ZbfFezIb3G-59" target="Rh-No7KB1UPHoSZis6lg-3">
          <mxGeometry relative="1" as="geometry">
            <Array as="points">
              <mxPoint x="119" y="280" />
            </Array>
          </mxGeometry>
        </mxCell>
        <mxCell id="5ubhzj_Dc8ZbfFezIb3G-59" value="User" style="swimlane;whiteSpace=wrap;html=1;" parent="1" vertex="1">
          <mxGeometry x="40" y="200" width="160" height="80" as="geometry" />
        </mxCell>
        <mxCell id="5ubhzj_Dc8ZbfFezIb3G-69" value="&lt;font style=&quot;font-size: 10px;&quot;&gt;Datasource&lt;/font&gt;" style="text;html=1;align=center;verticalAlign=middle;resizable=0;points=[];autosize=1;strokeColor=none;fillColor=none;" parent="1" vertex="1">
          <mxGeometry x="560" y="550" width="70" height="30" as="geometry" />
        </mxCell>
        <mxCell id="5ubhzj_Dc8ZbfFezIb3G-70" value="&lt;font style=&quot;font-size: 10px;&quot;&gt;&amp;lt;&amp;lt;use&amp;gt;&amp;gt;&lt;/font&gt;" style="text;html=1;align=center;verticalAlign=middle;resizable=0;points=[];autosize=1;strokeColor=none;fillColor=none;" parent="1" vertex="1">
          <mxGeometry x="730" y="260" width="60" height="30" as="geometry" />
        </mxCell>
        <mxCell id="Rh-No7KB1UPHoSZis6lg-8" style="edgeStyle=orthogonalEdgeStyle;rounded=0;orthogonalLoop=1;jettySize=auto;html=1;exitX=0.875;exitY=0.5;exitDx=0;exitDy=0;exitPerimeter=0;" edge="1" parent="1" source="Rh-No7KB1UPHoSZis6lg-3">
          <mxGeometry relative="1" as="geometry">
            <mxPoint x="240" y="469.9655172413793" as="targetPoint" />
          </mxGeometry>
        </mxCell>
        <mxCell id="Rh-No7KB1UPHoSZis6lg-3" value="Internet" style="ellipse;shape=cloud;whiteSpace=wrap;html=1;" vertex="1" parent="1">
          <mxGeometry x="60" y="430" width="120" height="80" as="geometry" />
        </mxCell>
        <mxCell id="Rh-No7KB1UPHoSZis6lg-6" style="edgeStyle=orthogonalEdgeStyle;rounded=0;orthogonalLoop=1;jettySize=auto;html=1;exitX=0.5;exitY=0;exitDx=0;exitDy=0;entryX=0.497;entryY=0.965;entryDx=0;entryDy=0;entryPerimeter=0;" edge="1" parent="1" source="Rh-No7KB1UPHoSZis6lg-5" target="Rh-No7KB1UPHoSZis6lg-3">
          <mxGeometry relative="1" as="geometry" />
        </mxCell>
        <mxCell id="Rh-No7KB1UPHoSZis6lg-5" value="External CRM" style="swimlane;whiteSpace=wrap;html=1;" vertex="1" parent="1">
          <mxGeometry x="40" y="670" width="160" height="80" as="geometry" />
        </mxCell>
        <mxCell id="Rh-No7KB1UPHoSZis6lg-20" style="edgeStyle=orthogonalEdgeStyle;rounded=0;orthogonalLoop=1;jettySize=auto;html=1;exitX=0.5;exitY=0;exitDx=0;exitDy=0;entryX=0.5;entryY=1;entryDx=0;entryDy=0;" edge="1" parent="1" source="Rh-No7KB1UPHoSZis6lg-13" target="5ubhzj_Dc8ZbfFezIb3G-40">
          <mxGeometry relative="1" as="geometry" />
        </mxCell>
        <mxCell id="Rh-No7KB1UPHoSZis6lg-34" style="edgeStyle=orthogonalEdgeStyle;rounded=0;orthogonalLoop=1;jettySize=auto;html=1;exitX=1;exitY=0.5;exitDx=0;exitDy=0;entryX=0.5;entryY=1;entryDx=0;entryDy=0;" edge="1" parent="1" source="Rh-No7KB1UPHoSZis6lg-13" target="Rh-No7KB1UPHoSZis6lg-26">
          <mxGeometry relative="1" as="geometry">
            <Array as="points">
              <mxPoint x="640" y="680" />
              <mxPoint x="760" y="680" />
            </Array>
          </mxGeometry>
        </mxCell>
        <mxCell id="Rh-No7KB1UPHoSZis6lg-13" value="Application Server" style="swimlane;whiteSpace=wrap;html=1;" vertex="1" parent="1">
          <mxGeometry x="480" y="600" width="160" height="150" as="geometry" />
        </mxCell>
        <mxCell id="Rh-No7KB1UPHoSZis6lg-14" value="Host Web&lt;br&gt;Server" style="rounded=0;whiteSpace=wrap;html=1;" vertex="1" parent="Rh-No7KB1UPHoSZis6lg-13">
          <mxGeometry x="20" y="30" width="120" height="50" as="geometry" />
        </mxCell>
        <mxCell id="Rh-No7KB1UPHoSZis6lg-15" value="" style="rounded=0;whiteSpace=wrap;html=1;" vertex="1" parent="Rh-No7KB1UPHoSZis6lg-13">
          <mxGeometry x="10" y="40" width="20" height="10" as="geometry" />
        </mxCell>
        <mxCell id="Rh-No7KB1UPHoSZis6lg-16" value="" style="rounded=0;whiteSpace=wrap;html=1;" vertex="1" parent="Rh-No7KB1UPHoSZis6lg-13">
          <mxGeometry x="10" y="60" width="20" height="10" as="geometry" />
        </mxCell>
        <mxCell id="Rh-No7KB1UPHoSZis6lg-17" value="Application" style="rounded=0;whiteSpace=wrap;html=1;" vertex="1" parent="Rh-No7KB1UPHoSZis6lg-13">
          <mxGeometry x="20" y="90" width="120" height="50" as="geometry" />
        </mxCell>
        <mxCell id="Rh-No7KB1UPHoSZis6lg-18" value="" style="rounded=0;whiteSpace=wrap;html=1;" vertex="1" parent="Rh-No7KB1UPHoSZis6lg-13">
          <mxGeometry x="10" y="100" width="20" height="10" as="geometry" />
        </mxCell>
        <mxCell id="Rh-No7KB1UPHoSZis6lg-19" value="" style="rounded=0;whiteSpace=wrap;html=1;" vertex="1" parent="Rh-No7KB1UPHoSZis6lg-13">
          <mxGeometry x="10" y="120" width="20" height="10" as="geometry" />
        </mxCell>
        <mxCell id="Rh-No7KB1UPHoSZis6lg-22" value="" style="endArrow=none;html=1;rounded=0;exitX=1;exitY=0.5;exitDx=0;exitDy=0;" edge="1" parent="1" source="5ubhzj_Dc8ZbfFezIb3G-29">
          <mxGeometry width="50" height="50" relative="1" as="geometry">
            <mxPoint x="570" y="580" as="sourcePoint" />
            <mxPoint x="430" y="475" as="targetPoint" />
          </mxGeometry>
        </mxCell>
        <mxCell id="Rh-No7KB1UPHoSZis6lg-23" value="" style="endArrow=classic;html=1;rounded=0;entryX=0;entryY=0.5;entryDx=0;entryDy=0;" edge="1" parent="1" target="5ubhzj_Dc8ZbfFezIb3G-36">
          <mxGeometry width="50" height="50" relative="1" as="geometry">
            <mxPoint x="430" y="470" as="sourcePoint" />
            <mxPoint x="620" y="530" as="targetPoint" />
            <Array as="points">
              <mxPoint x="430" y="285" />
            </Array>
          </mxGeometry>
        </mxCell>
        <mxCell id="Rh-No7KB1UPHoSZis6lg-24" value="" style="endArrow=classic;html=1;rounded=0;entryX=0;entryY=0.5;entryDx=0;entryDy=0;" edge="1" parent="1" target="Rh-No7KB1UPHoSZis6lg-13">
          <mxGeometry width="50" height="50" relative="1" as="geometry">
            <mxPoint x="430" y="470" as="sourcePoint" />
            <mxPoint x="620" y="530" as="targetPoint" />
            <Array as="points">
              <mxPoint x="430" y="675" />
            </Array>
          </mxGeometry>
        </mxCell>
        <mxCell id="Rh-No7KB1UPHoSZis6lg-25" value="&lt;font style=&quot;font-size: 10px;&quot;&gt;Balance&lt;/font&gt;" style="text;html=1;align=center;verticalAlign=middle;resizable=0;points=[];autosize=1;strokeColor=none;fillColor=none;" vertex="1" parent="1">
          <mxGeometry x="370" y="570" width="60" height="30" as="geometry" />
        </mxCell>
        <mxCell id="Rh-No7KB1UPHoSZis6lg-26" value="Email Server" style="swimlane;whiteSpace=wrap;html=1;" vertex="1" parent="1">
          <mxGeometry x="680" y="430" width="160" height="90" as="geometry" />
        </mxCell>
        <mxCell id="Rh-No7KB1UPHoSZis6lg-35" value="&lt;font style=&quot;font-size: 10px;&quot;&gt;&amp;lt;&amp;lt;use&amp;gt;&amp;gt;&lt;/font&gt;" style="text;html=1;align=center;verticalAlign=middle;resizable=0;points=[];autosize=1;strokeColor=none;fillColor=none;" vertex="1" parent="1">
          <mxGeometry x="730" y="680" width="60" height="30" as="geometry" />
        </mxCell>
        <mxCell id="Rh-No7KB1UPHoSZis6lg-40" style="edgeStyle=orthogonalEdgeStyle;rounded=0;orthogonalLoop=1;jettySize=auto;html=1;exitX=0.75;exitY=0;exitDx=0;exitDy=0;entryX=0.55;entryY=0.95;entryDx=0;entryDy=0;entryPerimeter=0;" edge="1" parent="1" source="Rh-No7KB1UPHoSZis6lg-36" target="Rh-No7KB1UPHoSZis6lg-39">
          <mxGeometry relative="1" as="geometry" />
        </mxCell>
        <mxCell id="Rh-No7KB1UPHoSZis6lg-36" value="SMS Gate" style="swimlane;whiteSpace=wrap;html=1;" vertex="1" parent="1">
          <mxGeometry x="880" y="430" width="160" height="90" as="geometry" />
        </mxCell>
        <mxCell id="Rh-No7KB1UPHoSZis6lg-37" value="" style="endArrow=classic;html=1;rounded=0;entryX=0.5;entryY=0;entryDx=0;entryDy=0;" edge="1" parent="1" target="Rh-No7KB1UPHoSZis6lg-36">
          <mxGeometry width="50" height="50" relative="1" as="geometry">
            <mxPoint x="760" y="290" as="sourcePoint" />
            <mxPoint x="740" y="530" as="targetPoint" />
            <Array as="points">
              <mxPoint x="860" y="290" />
              <mxPoint x="960" y="290" />
            </Array>
          </mxGeometry>
        </mxCell>
        <mxCell id="Rh-No7KB1UPHoSZis6lg-38" value="" style="endArrow=classic;html=1;rounded=0;entryX=0.5;entryY=1;entryDx=0;entryDy=0;" edge="1" parent="1" target="Rh-No7KB1UPHoSZis6lg-36">
          <mxGeometry width="50" height="50" relative="1" as="geometry">
            <mxPoint x="760" y="680" as="sourcePoint" />
            <mxPoint x="820" y="570" as="targetPoint" />
            <Array as="points">
              <mxPoint x="960" y="680" />
            </Array>
          </mxGeometry>
        </mxCell>
        <mxCell id="Rh-No7KB1UPHoSZis6lg-43" style="edgeStyle=orthogonalEdgeStyle;rounded=0;orthogonalLoop=1;jettySize=auto;html=1;exitX=0.625;exitY=0.2;exitDx=0;exitDy=0;exitPerimeter=0;" edge="1" parent="1" source="Rh-No7KB1UPHoSZis6lg-39">
          <mxGeometry relative="1" as="geometry">
            <mxPoint x="1114.8275862068965" y="200" as="targetPoint" />
          </mxGeometry>
        </mxCell>
        <mxCell id="Rh-No7KB1UPHoSZis6lg-39" value="Internet" style="ellipse;shape=cloud;whiteSpace=wrap;html=1;" vertex="1" parent="1">
          <mxGeometry x="1040" y="245" width="120" height="80" as="geometry" />
        </mxCell>
        <mxCell id="Rh-No7KB1UPHoSZis6lg-41" value="&lt;font style=&quot;font-size: 10px;&quot;&gt;&amp;lt;&amp;lt;use&amp;gt;&amp;gt;&lt;/font&gt;" style="text;html=1;align=center;verticalAlign=middle;resizable=0;points=[];autosize=1;strokeColor=none;fillColor=none;" vertex="1" parent="1">
          <mxGeometry x="1030" y="350" width="60" height="30" as="geometry" />
        </mxCell>
        <mxCell id="Rh-No7KB1UPHoSZis6lg-42" value="SMS Provider" style="swimlane;whiteSpace=wrap;html=1;" vertex="1" parent="1">
          <mxGeometry x="1020" y="110" width="160" height="90" as="geometry" />
        </mxCell>
      </root>
    </mxGraphModel>
  </diagram>
</mxfile>
